HIERARCHY
ROOT Hips
{
    OFFSET 0.000000 0.000000 0.000000
    CHANNELS 6 Xposition Yposition Zposition Zrotation Xrotation Yrotation
    JOINT Spine
    {
        OFFSET -0.000000 7.236184 0.000000
        CHANNELS 3 Zrotation Xrotation Yrotation
        JOINT Spine1
        {
            OFFSET -0.000000 20.420147 0.000000
            CHANNELS 3 Zrotation Xrotation Yrotation
            JOINT Neck
            {
                OFFSET -0.000000 20.336288 1.848754
                CHANNELS 3 Zrotation Xrotation Yrotation
                JOINT Head
                {
                    OFFSET -0.000000 12.354461 -1.764923
                    CHANNELS 3 Zrotation Xrotation Yrotation
                    End Site
                    {
                        OFFSET -0.000000 22.061537 0.000000
                    }
                }
            }
            JOINT LeftShoulder
            {
                OFFSET 3.573296 18.396038 -0.314103
                CHANNELS 3 Zrotation Xrotation Yrotation
                JOINT LeftArm
                {
                    OFFSET 10.880760 0.000000 0.000000
                    CHANNELS 3 Zrotation Xrotation Yrotation
                    JOINT LeftForeArm
                    {
                        OFFSET 27.185530 0.000000 0.000000
                        CHANNELS 3 Zrotation Xrotation Yrotation
                        JOINT LeftHand
                        {
                            OFFSET 27.825975 0.000000 0.000000
                            CHANNELS 3 Zrotation Xrotation Yrotation
                            End Site
                            {
                                OFFSET 13.236923 0.000000 0.000000
                            }
                        }
                    }
                }
            }
            JOINT RightShoulder
            {
                OFFSET -3.474926 18.396038 -0.314103
                CHANNELS 3 Zrotation Xrotation Yrotation
                JOINT RightArm
                {
                    OFFSET -10.880760 0.000000 0.000000
                    CHANNELS 3 Zrotation Xrotation Yrotation
                    JOINT RightForeArm
                    {
                        OFFSET -27.185530 0.000000 0.000000
                        CHANNELS 3 Zrotation Xrotation Yrotation
                        JOINT RightHand
                        {
                            OFFSET -27.825975 0.000000 0.000000
                            CHANNELS 3 Zrotation Xrotation Yrotation
                            End Site
                            {
                                OFFSET -13.236923 0.000000 0.000000
                            }
                        }
                    }
                }
            }
        }
    }
    JOINT LeftUpLeg
    {
        OFFSET 8.824615 0.000000 0.000000
        CHANNELS 3 Zrotation Xrotation Yrotation
        JOINT LeftLeg
        {
            OFFSET -0.000000 -35.111282 0.000000
            CHANNELS 3 Zrotation Xrotation Yrotation
            JOINT LeftFoot
            {
                OFFSET -0.000000 -42.324711 0.000000
                CHANNELS 3 Zrotation Xrotation Yrotation
                JOINT LeftToeBase
                {
                    OFFSET -0.000000 -5.735999 13.236923
                    CHANNELS 3 Zrotation Xrotation Yrotation
                    End Site
                    {
                        OFFSET -0.000000 0.000000 3.529846
                    }
                }
            }
        }
    }
    JOINT RightUpLeg
    {
        OFFSET -8.824615 0.000000 0.000000
        CHANNELS 3 Zrotation Xrotation Yrotation
        JOINT RightLeg
        {
            OFFSET -0.000000 -35.111282 0.000000
            CHANNELS 3 Zrotation Xrotation Yrotation
            JOINT RightFoot
            {
                OFFSET -0.000000 -42.324711 0.000000
                CHANNELS 3 Zrotation Xrotation Yrotation
                JOINT RightToeBase
                {
                    OFFSET -0.000000 -5.735999 13.236923
                    CHANNELS 3 Zrotation Xrotation Yrotation
                    End Site
                    {
                        OFFSET -0.000000 0.000000 3.529846
                    }
                }
            }
        }
    }
}
MOTION
Frames:    5
Frame Time:    0.008333
-7.585095    85.200272    100.662041    0.450466    -7.168211    -174.457733    -1.517980    -8.954432    1.394425    -0.386520    1.395043    1.517996    3.792346    10.447410    -4.099007    6.389386    0.913089    -3.611127    14.177286    -1.472206    -6.898518    -8.648660    -3.868457    -13.647502    27.571398    -1.200286    -19.359093    -4.384652    3.897070    -7.874886    -9.790434    3.401359    -8.981821    5.832173    -21.975418    -1.158852    -35.063755    -23.666857    65.612480    -13.788960    -1.241962    4.458757    4.094314    -11.215458    -6.166715    0.915961    16.898161    8.172189    -8.311576    -9.662162    -13.785626    0.419617    -0.243486    -0.465336    -8.934314    -4.019791    -10.120695    1.614195    10.870076    -1.836138    6.929319    -4.576881    -10.529338    -1.879436    -3.486507    2.042773    
-7.471578    85.175858    100.645493    0.376374    -7.182873    -174.679977    -1.664357    -9.039126    1.123031    -0.527023    1.407496    1.261077    4.069498    10.566214    -3.730410    6.210341    0.909611    -3.261693    13.710264    -1.245763    -7.036436    -8.630240    -5.322555    -14.366024    29.376717    -2.689762    -21.015287    -3.959347    3.155296    -7.853625    -8.672961    4.088613    -9.356764    6.403415    -22.038834    -1.875616    -35.383011    -23.692797    65.975883    -14.675675    -0.898153    4.465281    4.140460    -11.161372    -6.057139    0.890525    16.870096    8.297428    -8.382714    -9.683714    -13.808788    0.411184    -0.258182    -0.455996    -8.905624    -4.047802    -10.093967    1.585980    10.830696    -1.760395    6.789120    -4.746359    -10.482826    -1.921500    -3.386793    2.088187    
-7.356139    85.150673    100.628593    0.306313    -7.192103    -174.875229    -1.805326    -9.115368    0.846626    -0.677891    1.425808    0.999048    4.347314    10.667505    -3.370047    6.030441    0.907416    -2.921185    13.224199    -0.993611    -7.200702    -8.711416    -6.786070    -15.103006    31.117315    -4.317376    -22.788620    -3.401276    2.345946    -7.776490    -7.527391    4.764310    -9.740128    7.092659    -22.137125    -2.565312    -35.684837    -23.751369    66.332237    -15.582644    -0.600249    4.494693    4.188828    -11.110357    -5.947913    0.869133    16.847542    8.398447    -8.454654    -9.702761    -13.832924    0.404397    -0.272916    -0.448481    -8.871574    -4.066929    -10.073084    1.558948    10.796173    -1.690837    6.644215    -4.922309    -10.450452    -1.963372    -3.284153    2.133370    
-7.238436    85.124420    100.612091    0.236534    -7.199975    -175.048126    -1.945464    -9.187345    0.562148    -0.837908    1.450974    0.729037    4.624386    10.750715    -3.014662    5.848372    0.908728    -2.586625    12.722554    -0.718856    -7.396288    -8.898595    -8.255713    -15.858497    32.774529    -6.096321    -24.695871    -2.719105    1.460674    -7.632739    -6.354878    5.432259    -10.133246    7.913437    -22.266321    -3.222038    -35.971405    -23.826996    66.665901    -16.517416    -0.354912    4.551620    4.235402    -11.066674    -5.839604    0.851929    16.832029    8.480647    -8.527921    -9.719353    -13.858581    0.399178    -0.287909    -0.442705    -8.836745    -4.083264    -10.055434    1.533984    10.768936    -1.625151    6.494201    -5.106956    -10.432873    -2.004726    -3.176772    2.177963    
-7.119254    85.097145    100.596191    0.168277    -7.205492    -175.200821    -2.083502    -9.253953    0.270717    -1.002567    1.484012    0.452448    4.895959    10.813728    -2.666115    5.664074    0.915852    -2.259976    12.215767    -0.427890    -7.624199    -9.193780    -9.707129    -16.622438    34.303783    -8.009303    -26.724001    -1.937679    0.505940    -7.414766    -5.174781    6.086528    -10.531228    8.866926    -22.418808    -3.828179    -36.225838    -23.907207    66.959938    -17.475325    -0.157160    4.645529    4.280856    -11.030046    -5.732068    0.839202    16.825260    8.545612    -8.601900    -9.733989    -13.885468    0.395490    -0.303010    -0.438627    -8.800519    -4.097019    -10.036465    1.511689    10.750176    -1.562716    6.340726    -5.299385    -10.431218    -2.044178    -3.065756    2.220466    
